<svg width="96" height="96" viewBox="0 0 96 96" fill="none" xmlns="http://www.w3.org/2000/svg">
<g clip-path="url(#clip0_23_2)">
<rect width="96" height="96" rx="9.6" fill="white"/>
<rect width="96" height="96" fill="#185ADB"/>
<path d="M37.824 68.44H46.2336L36.672 53.5792C41.3952 51.5632 44.2176 47.3008 44.2176 41.4256C44.2176 33.0736 38.4576 27.544 29.76 27.544H15.4176V68.44H23.3088V54.904H29.4144L37.824 68.44ZM23.3088 34.8016H28.9536C33.2736 34.8016 36.2112 36.7024 36.2112 41.4256C36.2112 46.2064 33.2736 48.0496 28.9536 48.0496H23.3088V34.8016ZM73.3177 68.44H81.7273L72.1657 53.5792C76.8889 51.5632 79.7113 47.3008 79.7113 41.4256C79.7113 33.0736 73.9513 27.544 65.2537 27.544H50.9113V68.44H58.8025V54.904H64.9081L73.3177 68.44ZM58.8025 34.8016H64.4473C68.7673 34.8016 71.7049 36.7024 71.7049 41.4256C71.7049 46.2064 68.7673 48.0496 64.4473 48.0496H58.8025V34.8016Z" fill="white"/>
<rect x="74.7425" y="17.4174" width="55.3326" height="2.88" rx="1.44" transform="rotate(-40 74.7425 17.4174)" fill="#FFC947"/>
<rect x="81.8559" y="18.9677" width="57.6" height="2.88" rx="1.44" transform="rotate(-40 81.8559 18.9677)" fill="#16C79A"/>
<rect x="74.451" y="10.1428" width="57.6" height="2.88" rx="1.44" transform="rotate(-40 74.451 10.1428)" fill="#EE4266"/>
<rect width="55.3326" height="2.88" rx="1.44" transform="matrix(-0.766044 0.642788 0.642788 0.766044 17.6376 76.4124)" fill="#FFC947"/>
<rect width="57.6" height="2.88" rx="1.44" transform="matrix(-0.766044 0.642788 0.642788 0.766044 17.929 83.687)" fill="#16C79A"/>
<rect width="57.6" height="2.88" rx="1.44" transform="matrix(-0.766044 0.642788 0.642788 0.766044 10.5241 74.8622)" fill="#EE4266"/>
</g>
<defs>
<clipPath id="clip0_23_2">
<rect width="96" height="96" rx="9.6" fill="white"/>
</clipPath>
</defs>
</svg>
